<svg width="41" height="42" viewBox="0 0 41 42" fill="none" xmlns="http://www.w3.org/2000/svg">
<g filter="url(#filter0_d_59_709)">
<path d="M19.5 0.614746C14.199 0.614746 13.5383 0.63996 11.4638 0.726406C9.38067 0.827259 7.97162 1.14543 6.72834 1.62088C5.44606 2.11555 4.35392 2.7723 3.27519 3.84086C2.18915 4.90343 1.51631 5.9792 1.02144 7.24228C0.538755 8.46693 0.215746 9.85487 0.113358 11.9068C0.0195024 13.9515 0 14.601 0 19.8226C0 25.0442 0.025597 25.6949 0.113358 27.7384C0.215746 29.7843 0.538755 31.1782 1.02144 32.4029C1.52363 33.666 2.19037 34.7417 3.27519 35.8043C4.35392 36.8741 5.44606 37.5368 6.72834 38.0243C7.97162 38.4937 9.38677 38.8179 11.4638 38.9188C13.5396 39.0112 14.199 39.0304 19.5 39.0304C24.801 39.0304 25.4617 39.0052 27.5362 38.9188C29.6132 38.8179 31.0284 38.4925 32.2717 38.0243C33.5539 37.5296 34.6461 36.8729 35.7248 35.8043C36.8109 34.7417 37.4837 33.672 37.9786 32.4029C38.4552 31.1782 38.7843 29.7843 38.8866 27.7384C38.9805 25.6937 39 25.0442 39 19.8226C39 14.601 38.9744 13.9502 38.8866 11.9068C38.7843 9.86087 38.4539 8.45973 37.9786 7.24228C37.4764 5.9792 36.8096 4.90343 35.7248 3.84086C34.6461 2.77109 33.56 2.10834 32.2717 1.62088C31.0284 1.14543 29.6132 0.827259 27.5362 0.726406C25.4604 0.633956 24.801 0.614746 19.5 0.614746ZM19.5 4.07259C24.7059 4.07259 25.3276 4.0978 27.3851 4.18425C29.2829 4.27189 30.3165 4.58406 31.0028 4.8482C31.9182 5.19759 32.5581 5.61061 33.2504 6.28537C33.9294 6.95412 34.3487 7.59166 34.7034 8.49334C34.9715 9.1693 35.2884 10.1874 35.3774 12.0568C35.4652 14.0835 35.4908 14.697 35.4908 19.8238C35.4908 24.9505 35.4652 25.564 35.3701 27.5907C35.2677 29.4601 34.9508 30.4783 34.6839 31.1542C34.3145 32.0559 33.9025 32.6862 33.2224 33.3682C32.5362 34.037 31.8828 34.45 30.9747 34.7994C30.297 35.0635 29.2488 35.3757 27.3436 35.4633C25.2752 35.5498 24.6657 35.575 19.4464 35.575C14.227 35.575 13.6188 35.5498 11.5479 35.4561C9.65005 35.3553 8.60301 35.0431 7.91677 34.7801C6.99041 34.4164 6.35536 34.0105 5.67521 33.3406C4.98897 32.6646 4.5526 32.0211 4.21618 31.1266C3.94315 30.459 3.63111 29.4265 3.52994 27.5499C3.46046 25.5364 3.42755 24.9121 3.42755 19.795C3.42755 14.6802 3.46046 14.0547 3.52994 12.016C3.63111 10.1394 3.94315 9.10927 4.21618 8.43931C4.5526 7.52563 4.99019 6.90129 5.67521 6.22533C6.35414 5.55658 6.99041 5.12435 7.91677 4.78577C8.60301 4.52283 9.62445 4.21066 11.5296 4.11701C13.5981 4.04377 14.2075 4.01736 19.4196 4.01736L19.5 4.07259ZM19.5 9.96413C13.965 9.96413 9.48916 14.3789 9.48916 19.825C9.48916 25.2771 13.9711 29.6858 19.5 29.6858C25.035 29.6858 29.5108 25.2711 29.5108 19.825C29.5108 14.3729 25.0289 9.96413 19.5 9.96413ZM19.5 26.228C15.9067 26.228 12.9996 23.3645 12.9996 19.825C12.9996 16.2855 15.9067 13.422 19.5 13.422C23.0933 13.422 26.0004 16.2855 26.0004 19.825C26.0004 23.3645 23.0933 26.228 19.5 26.228ZM32.2546 9.57032C32.2546 10.8466 31.2002 11.8767 29.9106 11.8767C28.615 11.8767 27.5691 10.8454 27.5691 9.57032C27.5691 8.30124 28.6223 7.26869 29.9106 7.26869C31.199 7.26869 32.2546 8.30124 32.2546 9.57032Z" fill="white"/>
</g>
<defs>
<filter id="filter0_d_59_709" x="0" y="0.614746" width="41" height="40.4158" filterUnits="userSpaceOnUse" color-interpolation-filters="sRGB">
<feFlood flood-opacity="0" result="BackgroundImageFix"/>
<feColorMatrix in="SourceAlpha" type="matrix" values="0 0 0 0 0 0 0 0 0 0 0 0 0 0 0 0 0 0 127 0" result="hardAlpha"/>
<feOffset dx="2" dy="2"/>
<feComposite in2="hardAlpha" operator="out"/>
<feColorMatrix type="matrix" values="0 0 0 0 0 0 0 0 0 0 0 0 0 0 0 0 0 0 1 0"/>
<feBlend mode="normal" in2="BackgroundImageFix" result="effect1_dropShadow_59_709"/>
<feBlend mode="normal" in="SourceGraphic" in2="effect1_dropShadow_59_709" result="shape"/>
</filter>
</defs>
</svg>
