<svg width="40" height="40" viewBox="0 0 40 40" fill="none" xmlns="http://www.w3.org/2000/svg">
<g filter="url(#filter0_d_59_713)">
<path d="M37.9983 26.8063C37.9983 33.5287 33.9297 37.5363 27.1051 37.5363H24.8739C23.8427 37.5363 22.999 36.7052 22.999 35.6895V25.0333C22.999 24.5347 23.4115 24.1099 23.9177 24.1099L27.2175 24.0545C27.48 24.036 27.705 23.8514 27.7613 23.5928L28.4175 20.0654C28.4737 19.7329 28.2113 19.419 27.855 19.419L23.8614 19.4744C23.3365 19.4744 22.924 19.0681 22.9052 18.5694L22.8302 14.0447C22.8302 13.7492 23.074 13.4907 23.3927 13.4907L27.8925 13.4168C28.2113 13.4168 28.455 13.1767 28.455 12.8628L28.38 8.43037C28.38 8.11641 28.1363 7.87634 27.8175 7.87634L22.7552 7.95023C19.6429 8.00563 17.168 10.5173 17.2242 13.583L17.318 18.6618C17.3367 19.1789 16.9243 19.5852 16.3993 19.6037L14.1494 19.6406C13.8306 19.6406 13.5869 19.8807 13.5869 20.1946L13.6432 23.7036C13.6432 24.0176 13.8869 24.2577 14.2056 24.2577L16.4555 24.2207C16.9805 24.2207 17.393 24.627 17.4117 25.1257L17.5805 35.6526C17.5992 36.6868 16.7555 37.5363 15.7056 37.5363H11.3933C4.56857 37.5363 0.5 33.5287 0.5 26.7878V11.3299C0.5 4.60746 4.56857 0.599854 11.3933 0.599854H27.1051C33.9297 0.599854 37.9983 4.60746 37.9983 11.3299V26.8063Z" fill="white"/>
</g>
<defs>
<filter id="filter0_d_59_713" x="0.5" y="0.599854" width="39.498" height="38.9365" filterUnits="userSpaceOnUse" color-interpolation-filters="sRGB">
<feFlood flood-opacity="0" result="BackgroundImageFix"/>
<feColorMatrix in="SourceAlpha" type="matrix" values="0 0 0 0 0 0 0 0 0 0 0 0 0 0 0 0 0 0 127 0" result="hardAlpha"/>
<feOffset dx="2" dy="2"/>
<feComposite in2="hardAlpha" operator="out"/>
<feColorMatrix type="matrix" values="0 0 0 0 0 0 0 0 0 0 0 0 0 0 0 0 0 0 1 0"/>
<feBlend mode="normal" in2="BackgroundImageFix" result="effect1_dropShadow_59_713"/>
<feBlend mode="normal" in="SourceGraphic" in2="effect1_dropShadow_59_713" result="shape"/>
</filter>
</defs>
</svg>
