<svg width="35" height="40" viewBox="0 0 35 40" fill="none" xmlns="http://www.w3.org/2000/svg">
<g filter="url(#filter0_d_59_711)">
<path d="M16.8875 0.630234C18.9077 0.599854 20.9124 0.615044 22.9172 0.599854C23.0405 2.92393 23.8887 5.29358 25.6159 6.93411C27.343 8.62021 29.7796 9.3949 32.1544 9.65313V15.7747C29.9338 15.6988 27.6977 15.2431 25.6776 14.3013C24.7986 13.9064 23.9812 13.4051 23.1793 12.8886C23.1639 17.3241 23.1948 21.7596 23.1485 26.1799C23.0251 28.3065 22.3158 30.418 21.0666 32.1648C19.0465 35.0813 15.5459 36.9801 11.9528 37.0408C9.74754 37.1623 7.54232 36.5699 5.66094 35.4762C2.54588 33.6686 0.356076 30.3572 0.0322328 26.8027C0.00139051 26.0432 -0.0140306 25.2837 0.0168116 24.5394C0.294392 21.6533 1.74398 18.8887 3.99546 17.0051C6.55537 14.8178 10.1331 13.7696 13.4794 14.3924C13.5103 16.6406 13.4178 18.8887 13.4178 21.1368C11.8911 20.6507 10.1022 20.7875 8.76059 21.6989C7.78906 22.3216 7.04884 23.2786 6.66331 24.3571C6.33947 25.1318 6.432 25.9825 6.44742 26.8027C6.81753 29.2939 9.25406 31.3901 11.8448 31.1623C13.572 31.1471 15.222 30.1597 16.1165 28.7167C16.4095 28.2154 16.7333 27.6989 16.7487 27.1065C16.9029 24.3875 16.8413 21.6837 16.8567 18.9646C16.8721 12.843 16.8413 6.73664 16.8875 0.630234Z" fill="white"/>
</g>
<defs>
<filter id="filter0_d_59_711" x="0" y="0.599854" width="34.1543" height="38.4565" filterUnits="userSpaceOnUse" color-interpolation-filters="sRGB">
<feFlood flood-opacity="0" result="BackgroundImageFix"/>
<feColorMatrix in="SourceAlpha" type="matrix" values="0 0 0 0 0 0 0 0 0 0 0 0 0 0 0 0 0 0 127 0" result="hardAlpha"/>
<feOffset dx="2" dy="2"/>
<feComposite in2="hardAlpha" operator="out"/>
<feColorMatrix type="matrix" values="0 0 0 0 0 0 0 0 0 0 0 0 0 0 0 0 0 0 1 0"/>
<feBlend mode="normal" in2="BackgroundImageFix" result="effect1_dropShadow_59_711"/>
<feBlend mode="normal" in="SourceGraphic" in2="effect1_dropShadow_59_711" result="shape"/>
</filter>
</defs>
</svg>
