<svg width="337" height="32" viewBox="0 0 337 32" fill="none" xmlns="http://www.w3.org/2000/svg">
<g filter="url(#filter0_d_59_316)">
<path d="M9.64806 29.504C8.41606 29.504 7.26406 29.392 6.19206 29.168C5.13606 28.96 4.24806 28.68 3.52806 28.328C2.80806 27.976 2.21606 27.64 1.75206 27.32C1.30406 27 0.928062 26.68 0.624063 26.36L1.22406 20.528C1.88006 21.408 2.76006 22.176 3.86406 22.832C4.96806 23.472 6.16006 23.792 7.44006 23.792C8.72006 23.792 9.64006 23.656 10.2001 23.384C10.7761 23.112 11.0641 22.616 11.0641 21.896C11.0641 21.128 10.7361 20.472 10.0801 19.928C9.44006 19.384 8.32806 18.728 6.74406 17.96C6.16806 17.672 5.68006 17.416 5.28006 17.192C4.88006 16.952 4.34406 16.568 3.67206 16.04C3.01606 15.496 2.48006 14.936 2.06406 14.36C1.64806 13.768 1.28006 13.016 0.960062 12.104C0.640062 11.176 0.480062 10.184 0.480062 9.128C0.480062 3.416 3.70406 0.560001 10.1521 0.560001C11.1761 0.560001 12.1361 0.672001 13.0321 0.896001C13.9441 1.104 14.6561 1.336 15.1681 1.592C15.6801 1.848 16.1441 2.152 16.5601 2.504C16.9921 2.84 17.2641 3.08 17.3761 3.224C17.4881 3.352 17.5681 3.456 17.6161 3.536L16.4161 8.168C15.7921 7.432 15.0081 6.888 14.0641 6.536C13.1361 6.168 12.2481 5.984 11.4001 5.984C9.35206 5.984 8.32806 6.624 8.32806 7.904C8.32806 8.24 8.39206 8.544 8.52006 8.816C8.64806 9.088 8.85606 9.336 9.14406 9.56C9.43206 9.784 9.69606 9.976 9.93606 10.136C10.1921 10.296 10.5361 10.496 10.9681 10.736C11.4161 10.96 11.7521 11.144 11.9761 11.288C14.3121 12.28 16.0241 13.456 17.1121 14.816C18.2161 16.176 18.7681 17.832 18.7681 19.784C18.7681 22.952 17.9841 25.368 16.4161 27.032C14.8641 28.68 12.6081 29.504 9.64806 29.504ZM32.1831 29.504C30.5351 29.504 29.0711 29.344 27.7911 29.024C26.5271 28.704 25.4871 28.272 24.6711 27.728C23.8711 27.184 23.2071 26.512 22.6791 25.712C22.1671 24.896 21.8071 24.04 21.5991 23.144C21.3911 22.248 21.2871 21.256 21.2871 20.168V0.872H29.8311V19.088C29.8311 21.12 30.0391 22.52 30.4551 23.288C30.8871 24.04 31.5111 24.416 32.3271 24.416C32.7751 24.416 33.1671 24.344 33.5031 24.2C33.8391 24.04 34.1511 23.776 34.4391 23.408C34.7271 23.024 34.9431 22.48 35.0871 21.776C35.2471 21.056 35.3271 20.184 35.3271 19.16V0.872H42.9111V20.312C42.9111 21.384 42.8151 22.352 42.6231 23.216C42.4471 24.08 42.1111 24.92 41.6151 25.736C41.1351 26.536 40.4951 27.208 39.6951 27.752C38.9111 28.28 37.8791 28.704 36.5991 29.024C35.3351 29.344 33.8631 29.504 32.1831 29.504ZM54.0754 29H46.1314V0.872H49.2994C50.1474 0.872 51.4274 0.84 53.1394 0.776001C54.8514 0.696001 56.2594 0.656001 57.3634 0.656001C60.4674 0.656001 62.8194 1.48 64.4194 3.128C66.0194 4.776 66.8194 7.248 66.8194 10.544C66.8194 12.528 66.5554 14.336 66.0274 15.968C65.5154 17.584 64.8194 18.912 63.9394 19.952C63.0594 20.992 62.0594 21.792 60.9394 22.352C59.8194 22.912 58.6354 23.192 57.3874 23.192C57.2274 23.192 57.0594 23.192 56.8834 23.192C56.7234 23.192 56.5714 23.192 56.4274 23.192C56.2994 23.176 56.1394 23.168 55.9474 23.168C55.7714 23.152 55.6274 23.144 55.5154 23.144C55.4194 23.128 55.2754 23.12 55.0834 23.12C54.9074 23.104 54.7874 23.096 54.7234 23.096C54.6594 23.096 54.5394 23.088 54.3634 23.072C54.1874 23.056 54.0914 23.048 54.0754 23.048V29ZM58.9474 9.488C58.9474 8.304 58.6274 7.344 57.9874 6.608C57.3474 5.872 56.4274 5.504 55.2274 5.504H54.0754V17.984H54.9634C56.2274 17.984 57.2034 17.56 57.8914 16.712C58.5954 15.864 58.9474 14.64 58.9474 13.04V9.488ZM85.6474 29H68.6314V0.872H85.2874L84.8074 6.536L76.5754 6.296V11.72H83.0554V17.336L76.5754 16.856V23.24L85.6474 23V29ZM95.7227 19.64V29H87.7547V0.872H90.9227C91.6907 0.872 92.8347 0.84 94.3547 0.776001C95.8748 0.696001 97.1308 0.656001 98.1227 0.656001C101.579 0.656001 104.155 1.416 105.851 2.936C107.563 4.456 108.419 6.784 108.419 9.92C108.419 11.776 108.011 13.424 107.195 14.864C106.395 16.304 105.331 17.448 104.003 18.296C104.723 18.472 105.339 18.88 105.851 19.52C106.379 20.16 106.787 20.92 107.075 21.8C107.363 22.664 107.611 23.544 107.819 24.44C108.043 25.32 108.291 26.192 108.563 27.056C108.851 27.92 109.163 28.568 109.499 29H100.643C100.467 28.776 100.331 28.152 100.235 27.128C100.139 26.088 100.003 24.848 99.8267 23.408C99.6667 21.952 99.4347 20.736 99.1307 19.76C99.0987 19.76 99.0587 19.76 99.0107 19.76C98.7067 19.76 98.3787 19.76 98.0268 19.76C97.6908 19.744 97.3948 19.728 97.1388 19.712C96.8828 19.696 96.6107 19.68 96.3227 19.664C96.0507 19.648 95.8507 19.64 95.7227 19.64ZM95.7227 15.176H96.4908C96.8907 15.176 97.2267 15.16 97.4987 15.128C97.7707 15.096 98.0667 15.04 98.3867 14.96C98.7227 14.864 98.9947 14.72 99.2027 14.528C99.4268 14.336 99.6348 14.088 99.8267 13.784C100.019 13.48 100.163 13.088 100.259 12.608C100.355 12.128 100.403 11.568 100.403 10.928V9.032C100.403 7.64 100.035 6.672 99.2987 6.128C98.5788 5.568 97.5388 5.288 96.1788 5.288H95.7227V15.176ZM126.759 29H119.535L121.767 0.872H133.023L135.135 10.304L136.095 15.08L137.007 10.328L138.879 0.872H148.911L150.975 29H143.511L142.287 12.464L141.999 6.368L138.327 26.192H132.063L127.647 6.368L127.503 12.464L126.759 29ZM166.877 29L165.797 24.512H158.981L158.069 29H151.013L158.333 2.816L157.757 0.872H167.669L175.685 29H166.877ZM162.077 9.128L159.965 19.616H164.621L162.077 9.128ZM184.527 19.64V29H176.559V0.872H179.727C180.495 0.872 181.639 0.84 183.159 0.776001C184.679 0.696001 185.935 0.656001 186.927 0.656001C190.383 0.656001 192.959 1.416 194.655 2.936C196.367 4.456 197.223 6.784 197.223 9.92C197.223 11.776 196.815 13.424 195.999 14.864C195.199 16.304 194.135 17.448 192.807 18.296C193.527 18.472 194.143 18.88 194.655 19.52C195.183 20.16 195.591 20.92 195.879 21.8C196.167 22.664 196.415 23.544 196.623 24.44C196.847 25.32 197.095 26.192 197.367 27.056C197.655 27.92 197.967 28.568 198.303 29H189.447C189.271 28.776 189.135 28.152 189.039 27.128C188.943 26.088 188.807 24.848 188.631 23.408C188.471 21.952 188.239 20.736 187.935 19.76C187.903 19.76 187.863 19.76 187.815 19.76C187.511 19.76 187.183 19.76 186.831 19.76C186.495 19.744 186.199 19.728 185.943 19.712C185.687 19.696 185.415 19.68 185.127 19.664C184.855 19.648 184.655 19.64 184.527 19.64ZM184.527 15.176H185.295C185.695 15.176 186.031 15.16 186.303 15.128C186.575 15.096 186.871 15.04 187.191 14.96C187.527 14.864 187.799 14.72 188.007 14.528C188.231 14.336 188.439 14.088 188.631 13.784C188.823 13.48 188.967 13.088 189.063 12.608C189.159 12.128 189.207 11.568 189.207 10.928V9.032C189.207 7.64 188.839 6.672 188.103 6.128C187.383 5.568 186.343 5.288 184.983 5.288H184.527V15.176ZM199.907 29V0.872H208.091V29H199.907ZM219.502 18.128C219.502 20.784 219.702 22.632 220.102 23.672C220.518 24.712 221.238 25.232 222.262 25.232C223.014 25.232 223.582 25.048 223.966 24.68C224.35 24.296 224.638 23.52 224.83 22.352C225.038 21.168 225.142 19.4 225.142 17.048V11.264C225.142 8.976 224.918 7.272 224.47 6.152C224.022 5.032 223.286 4.472 222.262 4.472C221.238 4.472 220.518 5.024 220.102 6.128C219.702 7.216 219.502 9.208 219.502 12.104V18.128ZM221.758 29.504C220.43 29.504 219.23 29.384 218.158 29.144C217.102 28.904 216.19 28.568 215.422 28.136C214.654 27.704 213.982 27.152 213.406 26.48C212.846 25.808 212.39 25.088 212.038 24.32C211.702 23.552 211.43 22.656 211.222 21.632C211.014 20.592 210.87 19.56 210.79 18.536C210.71 17.496 210.67 16.328 210.67 15.032C210.67 13.112 210.766 11.44 210.958 10.016C211.166 8.592 211.542 7.256 212.086 6.008C212.63 4.744 213.35 3.72 214.246 2.936C215.158 2.152 216.326 1.536 217.75 1.088C219.19 0.640001 220.886 0.416001 222.838 0.416001C224.182 0.416001 225.39 0.544001 226.462 0.800001C227.534 1.04 228.454 1.376 229.222 1.808C229.99 2.24 230.654 2.8 231.214 3.488C231.79 4.176 232.246 4.912 232.582 5.696C232.934 6.464 233.214 7.368 233.422 8.408C233.63 9.448 233.774 10.48 233.854 11.504C233.934 12.528 233.974 13.688 233.974 14.984C233.974 16.904 233.87 18.576 233.662 20C233.454 21.424 233.078 22.76 232.534 24.008C231.99 25.24 231.262 26.248 230.35 27.032C229.438 27.8 228.262 28.408 226.822 28.856C225.398 29.288 223.71 29.504 221.758 29.504ZM246.1 29V0.872H254.044V22.568H261.196V29H246.1ZM277.197 29L276.117 24.512H269.301L268.389 29H261.333L268.653 2.816L268.077 0.872H277.989L286.005 29H277.197ZM272.397 9.128L270.285 19.616H274.941L272.397 9.128ZM294.584 29H286.952V3.128L285.776 0.872H294.608L299.024 9.992L303.248 19.088L302.072 8.408V0.872H309.728V29H302.408L296.696 17.888L293.168 10.928L294.584 20.144V29ZM322.447 25.064C323.663 25.064 324.591 24.312 325.231 22.808C325.887 21.304 326.215 18.824 326.215 15.368V12.944C326.215 10.416 325.911 8.464 325.303 7.088C324.695 5.712 323.831 5.024 322.711 5.024H320.911V25.064H322.447ZM323.191 29.168C322.615 29.168 321.719 29.136 320.503 29.072C319.303 29.024 318.063 29 316.783 29H312.967V0.872H316.783C317.855 0.856 319.023 0.816 320.287 0.752C321.551 0.688001 322.543 0.656001 323.263 0.656001C327.343 0.656001 330.263 1.8 332.023 4.088C333.799 6.376 334.687 9.712 334.687 14.096C334.687 15.584 334.583 17 334.375 18.344C334.183 19.688 333.815 21.04 333.271 22.4C332.727 23.744 332.039 24.904 331.207 25.88C330.375 26.856 329.271 27.648 327.895 28.256C326.519 28.864 324.951 29.168 323.191 29.168Z" fill="#CB0505"/>
</g>
<defs>
<filter id="filter0_d_59_316" x="0.480469" y="0.416016" width="336.207" height="31.088" filterUnits="userSpaceOnUse" color-interpolation-filters="sRGB">
<feFlood flood-opacity="0" result="BackgroundImageFix"/>
<feColorMatrix in="SourceAlpha" type="matrix" values="0 0 0 0 0 0 0 0 0 0 0 0 0 0 0 0 0 0 127 0" result="hardAlpha"/>
<feOffset dx="2" dy="2"/>
<feComposite in2="hardAlpha" operator="out"/>
<feColorMatrix type="matrix" values="0 0 0 0 0 0 0 0 0 0 0 0 0 0 0 0 0 0 1 0"/>
<feBlend mode="normal" in2="BackgroundImageFix" result="effect1_dropShadow_59_316"/>
<feBlend mode="normal" in="SourceGraphic" in2="effect1_dropShadow_59_316" result="shape"/>
</filter>
</defs>
</svg>
