<svg width="189" height="19" viewBox="0 0 189 19" fill="none" xmlns="http://www.w3.org/2000/svg">
<g filter="url(#filter0_d_40_355)">
<path d="M5.80448 16.28C5.12003 16.28 4.48003 16.2178 3.88448 16.0933C3.29781 15.9778 2.80448 15.8222 2.40448 15.6267C2.00448 15.4311 1.67559 15.2444 1.41781 15.0667C1.16892 14.8889 0.960035 14.7111 0.791146 14.5333L1.12448 11.2933C1.48892 11.7822 1.97781 12.2089 2.59115 12.5733C3.20448 12.9289 3.8667 13.1067 4.57781 13.1067C5.28892 13.1067 5.80003 13.0311 6.11115 12.88C6.43115 12.7289 6.59115 12.4533 6.59115 12.0533C6.59115 11.6267 6.40892 11.2622 6.04448 10.96C5.68892 10.6578 5.07115 10.2933 4.19115 9.86667C3.87115 9.70667 3.60003 9.56444 3.37781 9.44C3.15559 9.30667 2.85781 9.09333 2.48448 8.8C2.12003 8.49778 1.82226 8.18667 1.59115 7.86667C1.36003 7.53778 1.15559 7.12 0.977812 6.61333C0.800035 6.09778 0.711146 5.54667 0.711146 4.96C0.711146 1.78667 2.50226 0.200001 6.08448 0.200001C6.65337 0.200001 7.1867 0.262223 7.68448 0.386667C8.19115 0.502222 8.5867 0.631111 8.87115 0.773333C9.15559 0.915555 9.41337 1.08444 9.64448 1.28C9.88448 1.46667 10.0356 1.6 10.0978 1.68C10.16 1.75111 10.2045 1.80889 10.2311 1.85333L9.56448 4.42667C9.21781 4.01778 8.78226 3.71556 8.25781 3.52C7.74226 3.31556 7.24892 3.21333 6.77781 3.21333C5.64003 3.21333 5.07115 3.56889 5.07115 4.28C5.07115 4.46667 5.1067 4.63556 5.17781 4.78667C5.24892 4.93778 5.36448 5.07556 5.52448 5.2C5.68448 5.32444 5.83115 5.43111 5.96448 5.52C6.1067 5.60889 6.29781 5.72 6.53781 5.85333C6.7867 5.97778 6.97337 6.08 7.09781 6.16C8.39559 6.71111 9.3467 7.36444 9.95115 8.12C10.5645 8.87556 10.8711 9.79556 10.8711 10.88C10.8711 12.64 10.4356 13.9822 9.56448 14.9067C8.70226 15.8222 7.44892 16.28 5.80448 16.28ZM18.324 16.28C17.4084 16.28 16.5951 16.1911 15.884 16.0133C15.1817 15.8356 14.604 15.5956 14.1506 15.2933C13.7062 14.9911 13.3373 14.6178 13.044 14.1733C12.7595 13.72 12.5595 13.2444 12.444 12.7467C12.3284 12.2489 12.2706 11.6978 12.2706 11.0933V0.373333H17.0173V10.4933C17.0173 11.6222 17.1328 12.4 17.364 12.8267C17.604 13.2444 17.9506 13.4533 18.404 13.4533C18.6528 13.4533 18.8706 13.4133 19.0573 13.3333C19.244 13.2444 19.4173 13.0978 19.5773 12.8933C19.7373 12.68 19.8573 12.3778 19.9373 11.9867C20.0262 11.5867 20.0706 11.1022 20.0706 10.5333V0.373333H24.284V11.1733C24.284 11.7689 24.2306 12.3067 24.124 12.7867C24.0262 13.2667 23.8395 13.7333 23.564 14.1867C23.2973 14.6311 22.9417 15.0044 22.4973 15.3067C22.0617 15.6 21.4884 15.8356 20.7773 16.0133C20.0751 16.1911 19.2573 16.28 18.324 16.28ZM30.4864 16H26.073V0.373333H27.833C28.3041 0.373333 29.0152 0.355556 29.9664 0.32C30.9175 0.275556 31.6997 0.253334 32.313 0.253334C34.0375 0.253334 35.3441 0.711111 36.233 1.62667C37.1219 2.54222 37.5664 3.91556 37.5664 5.74667C37.5664 6.84889 37.4197 7.85333 37.1264 8.76C36.8419 9.65778 36.4552 10.3956 35.9664 10.9733C35.4775 11.5511 34.9219 11.9956 34.2997 12.3067C33.6775 12.6178 33.0197 12.7733 32.3264 12.7733C32.2375 12.7733 32.1441 12.7733 32.0464 12.7733C31.9575 12.7733 31.873 12.7733 31.793 12.7733C31.7219 12.7644 31.633 12.76 31.5264 12.76C31.4286 12.7511 31.3486 12.7467 31.2864 12.7467C31.233 12.7378 31.153 12.7333 31.0464 12.7333C30.9486 12.7244 30.8819 12.72 30.8464 12.72C30.8108 12.72 30.7441 12.7156 30.6464 12.7067C30.5486 12.6978 30.4952 12.6933 30.4864 12.6933V16ZM33.193 5.16C33.193 4.50222 33.0152 3.96889 32.6597 3.56C32.3041 3.15111 31.793 2.94667 31.1264 2.94667H30.4864V9.88H30.9797C31.6819 9.88 32.2241 9.64444 32.6064 9.17333C32.9975 8.70222 33.193 8.02222 33.193 7.13333V5.16ZM48.0264 16H38.573V0.373333H47.8264L47.5597 3.52L42.9864 3.38667V6.4H46.5864V9.52L42.9864 9.25333V12.8L48.0264 12.6667V16ZM53.6237 10.8V16H49.1971V0.373333H50.9571C51.3837 0.373333 52.0193 0.355556 52.8637 0.32C53.7082 0.275556 54.406 0.253334 54.9571 0.253334C56.8771 0.253334 58.3082 0.675556 59.2504 1.52C60.2015 2.36444 60.6771 3.65778 60.6771 5.4C60.6771 6.43111 60.4504 7.34667 59.9971 8.14667C59.5526 8.94667 58.9615 9.58222 58.2237 10.0533C58.6237 10.1511 58.966 10.3778 59.2504 10.7333C59.5438 11.0889 59.7704 11.5111 59.9304 12C60.0904 12.48 60.2282 12.9689 60.3437 13.4667C60.4682 13.9556 60.606 14.44 60.7571 14.92C60.9171 15.4 61.0904 15.76 61.2771 16H56.3571C56.2593 15.8756 56.1837 15.5289 56.1304 14.96C56.0771 14.3822 56.0015 13.6933 55.9037 12.8933C55.8149 12.0844 55.686 11.4089 55.5171 10.8667C55.4993 10.8667 55.4771 10.8667 55.4504 10.8667C55.2815 10.8667 55.0993 10.8667 54.9038 10.8667C54.7171 10.8578 54.5526 10.8489 54.4104 10.84C54.2682 10.8311 54.1171 10.8222 53.9571 10.8133C53.806 10.8044 53.6949 10.8 53.6237 10.8ZM53.6237 8.32H54.0504C54.2726 8.32 54.4593 8.31111 54.6104 8.29333C54.7615 8.27556 54.926 8.24444 55.1037 8.2C55.2904 8.14667 55.4415 8.06667 55.5571 7.96C55.6815 7.85333 55.7971 7.71556 55.9037 7.54667C56.0104 7.37778 56.0904 7.16 56.1437 6.89333C56.1971 6.62667 56.2237 6.31556 56.2237 5.96V4.90667C56.2237 4.13333 56.0193 3.59556 55.6104 3.29333C55.2104 2.98222 54.6326 2.82667 53.8771 2.82667H53.6237V8.32ZM70.8659 16H66.8526L68.0926 0.373333H74.3459L75.5193 5.61333L76.0526 8.26667L76.5593 5.62667L77.5993 0.373333H83.1726L84.3193 16H80.1726L79.4926 6.81333L79.3326 3.42667L77.2926 14.44H73.8126L71.3593 3.42667L71.2793 6.81333L70.8659 16ZM93.1538 16L92.5538 13.5067H88.7671L88.2604 16H84.3404L88.4071 1.45333L88.0871 0.373333H93.5937L98.0471 16H93.1538ZM90.4871 4.96L89.3138 10.7867H91.9004L90.4871 4.96ZM102.96 10.8V16H98.533V0.373333H100.293C100.72 0.373333 101.355 0.355556 102.2 0.32C103.044 0.275556 103.742 0.253334 104.293 0.253334C106.213 0.253334 107.644 0.675556 108.586 1.52C109.537 2.36444 110.013 3.65778 110.013 5.4C110.013 6.43111 109.786 7.34667 109.333 8.14667C108.889 8.94667 108.297 9.58222 107.56 10.0533C107.96 10.1511 108.302 10.3778 108.586 10.7333C108.88 11.0889 109.106 11.5111 109.266 12C109.426 12.48 109.564 12.9689 109.68 13.4667C109.804 13.9556 109.942 14.44 110.093 14.92C110.253 15.4 110.426 15.76 110.613 16H105.693C105.595 15.8756 105.52 15.5289 105.466 14.96C105.413 14.3822 105.337 13.6933 105.24 12.8933C105.151 12.0844 105.022 11.4089 104.853 10.8667C104.835 10.8667 104.813 10.8667 104.786 10.8667C104.617 10.8667 104.435 10.8667 104.24 10.8667C104.053 10.8578 103.889 10.8489 103.746 10.84C103.604 10.8311 103.453 10.8222 103.293 10.8133C103.142 10.8044 103.031 10.8 102.96 10.8ZM102.96 8.32H103.386C103.609 8.32 103.795 8.31111 103.946 8.29333C104.097 8.27556 104.262 8.24444 104.44 8.2C104.626 8.14667 104.777 8.06667 104.893 7.96C105.017 7.85333 105.133 7.71556 105.24 7.54667C105.346 7.37778 105.426 7.16 105.48 6.89333C105.533 6.62667 105.56 6.31556 105.56 5.96V4.90667C105.56 4.13333 105.355 3.59556 104.946 3.29333C104.546 2.98222 103.969 2.82667 103.213 2.82667H102.96V8.32ZM111.504 16V0.373333H116.05V16H111.504ZM122.39 9.96C122.39 11.4356 122.501 12.4622 122.723 13.04C122.954 13.6178 123.354 13.9067 123.923 13.9067C124.341 13.9067 124.657 13.8044 124.87 13.6C125.083 13.3867 125.243 12.9556 125.35 12.3067C125.465 11.6489 125.523 10.6667 125.523 9.36V6.14667C125.523 4.87556 125.399 3.92889 125.15 3.30667C124.901 2.68444 124.492 2.37333 123.923 2.37333C123.354 2.37333 122.954 2.68 122.723 3.29333C122.501 3.89778 122.39 5.00444 122.39 6.61333V9.96ZM123.643 16.28C122.905 16.28 122.239 16.2133 121.643 16.08C121.057 15.9467 120.55 15.76 120.123 15.52C119.697 15.28 119.323 14.9733 119.003 14.6C118.692 14.2267 118.439 13.8267 118.243 13.4C118.057 12.9733 117.905 12.4756 117.79 11.9067C117.674 11.3289 117.594 10.7556 117.55 10.1867C117.505 9.60889 117.483 8.96 117.483 8.24C117.483 7.17333 117.537 6.24444 117.643 5.45333C117.759 4.66222 117.968 3.92 118.27 3.22667C118.572 2.52444 118.972 1.95556 119.47 1.52C119.977 1.08444 120.625 0.742222 121.417 0.493333C122.217 0.244445 123.159 0.120001 124.243 0.120001C124.99 0.120001 125.661 0.191112 126.257 0.333334C126.852 0.466667 127.363 0.653334 127.79 0.893334C128.217 1.13333 128.585 1.44444 128.897 1.82667C129.217 2.20889 129.47 2.61778 129.657 3.05333C129.852 3.48 130.008 3.98222 130.123 4.56C130.239 5.13778 130.319 5.71111 130.363 6.28C130.408 6.84889 130.43 7.49333 130.43 8.21333C130.43 9.28 130.372 10.2089 130.257 11C130.141 11.7911 129.932 12.5333 129.63 13.2267C129.328 13.9111 128.923 14.4711 128.417 14.9067C127.91 15.3333 127.257 15.6711 126.457 15.92C125.665 16.16 124.728 16.28 123.643 16.28ZM137.167 16V0.373333H141.58V12.4267H145.553V16H137.167ZM154.443 16L153.843 13.5067H150.056L149.549 16H145.629L149.696 1.45333L149.376 0.373333H154.883L159.336 16H154.443ZM151.776 4.96L150.603 10.7867H153.189L151.776 4.96ZM164.102 16H159.862V1.62667L159.209 0.373333H164.115L166.569 5.44L168.915 10.4933L168.262 4.56V0.373333H172.515V16H168.449L165.275 9.82667L163.315 5.96L164.102 11.08V16ZM179.582 13.8133C180.257 13.8133 180.773 13.3956 181.129 12.56C181.493 11.7244 181.675 10.3467 181.675 8.42667V7.08C181.675 5.67556 181.506 4.59111 181.169 3.82667C180.831 3.06222 180.351 2.68 179.729 2.68H178.729V13.8133H179.582ZM179.995 16.0933C179.675 16.0933 179.177 16.0756 178.502 16.04C177.835 16.0133 177.146 16 176.435 16H174.315V0.373333H176.435C177.031 0.364444 177.68 0.342222 178.382 0.306667C179.084 0.271111 179.635 0.253334 180.035 0.253334C182.302 0.253334 183.924 0.888889 184.902 2.16C185.889 3.43111 186.382 5.28444 186.382 7.72C186.382 8.54667 186.324 9.33333 186.209 10.08C186.102 10.8267 185.897 11.5778 185.595 12.3333C185.293 13.08 184.911 13.7244 184.449 14.2667C183.986 14.8089 183.373 15.2489 182.609 15.5867C181.844 15.9244 180.973 16.0933 179.995 16.0933Z" fill="white"/>
</g>
<defs>
<filter id="filter0_d_40_355" x="0.710938" y="0.119995" width="187.671" height="18.16" filterUnits="userSpaceOnUse" color-interpolation-filters="sRGB">
<feFlood flood-opacity="0" result="BackgroundImageFix"/>
<feColorMatrix in="SourceAlpha" type="matrix" values="0 0 0 0 0 0 0 0 0 0 0 0 0 0 0 0 0 0 127 0" result="hardAlpha"/>
<feOffset dx="2" dy="2"/>
<feComposite in2="hardAlpha" operator="out"/>
<feColorMatrix type="matrix" values="0 0 0 0 0 0 0 0 0 0 0 0 0 0 0 0 0 0 1 0"/>
<feBlend mode="normal" in2="BackgroundImageFix" result="effect1_dropShadow_40_355"/>
<feBlend mode="normal" in="SourceGraphic" in2="effect1_dropShadow_40_355" result="shape"/>
</filter>
</defs>
</svg>
